<svg width="20" height="20" viewBox="0 0 20 20" fill="none" xmlns="http://www.w3.org/2000/svg">
<path d="M18.2499 8.16667H1.74992C1.24575 8.16667 0.833252 8.57917 0.833252 9.08333V13.8408C0.833252 14.0242 0.842419 14.2075 0.860752 14.3908C1.04409 17.2142 2.78575 18.9558 5.60909 19.1392C5.79242 19.1575 5.97575 19.1667 6.15909 19.1667H13.8408C14.0241 19.1667 14.2074 19.1575 14.3908 19.1392C17.2141 18.9558 18.9558 17.2142 19.1391 14.3908C19.1574 14.2075 19.1666 14.0242 19.1666 13.8408V9.08333C19.1666 8.57917 18.7541 8.16667 18.2499 8.16667ZM6.33325 13.8042C6.64492 14.2625 7.06659 14.6383 7.55242 14.8858C7.90075 15.0508 8.03825 15.4633 7.86409 15.8117C7.74492 16.05 7.49742 16.1875 7.24992 16.1875C7.14909 16.1875 7.03909 16.16 6.94742 16.1142C6.23242 15.7658 5.62742 15.225 5.19659 14.5742C4.82992 14.0242 4.82992 13.3092 5.19659 12.7592C5.62742 12.1083 6.23242 11.5675 6.94742 11.2192C7.28659 11.045 7.69909 11.1825 7.86409 11.5217C8.03825 11.87 7.90075 12.2825 7.55242 12.4475C7.06659 12.695 6.64492 13.0708 6.33325 13.5292C6.27825 13.6117 6.27825 13.7217 6.33325 13.8042V13.8042ZM14.9958 14.5742C14.5558 15.225 13.9508 15.7658 13.2449 16.1142C13.1649 16.1548 13.0777 16.1792 12.9882 16.186C12.8988 16.1928 12.8088 16.1818 12.7236 16.1537C12.6384 16.1256 12.5596 16.0809 12.4918 16.0222C12.4239 15.9635 12.3683 15.8919 12.3283 15.8117C12.2865 15.7312 12.2613 15.6432 12.2539 15.5528C12.2466 15.4624 12.2573 15.3715 12.2854 15.2853C12.3136 15.1992 12.3586 15.1195 12.4179 15.0509C12.4772 14.9823 12.5496 14.9262 12.6308 14.8858C13.1258 14.6383 13.5474 14.2625 13.8499 13.8042C13.8812 13.7651 13.8982 13.7167 13.8982 13.6667C13.8982 13.6167 13.8812 13.5682 13.8499 13.5292C13.5474 13.0708 13.1258 12.695 12.6308 12.4475C12.5496 12.4072 12.4772 12.3511 12.4179 12.2825C12.3586 12.2139 12.3136 12.1342 12.2854 12.048C12.2573 11.9618 12.2466 11.8709 12.2539 11.7805C12.2613 11.6902 12.2865 11.6022 12.3283 11.5217C12.4933 11.1825 12.9058 11.045 13.2449 11.2192C13.9508 11.5675 14.5558 12.1083 14.9958 12.7592C15.3624 13.3092 15.3624 14.0242 14.9958 14.5742ZM19.1666 6.15917V6.33333C19.1666 6.8375 18.7541 7.25 18.2499 7.25L1.74992 7.25917C1.24575 7.25917 0.833252 6.84667 0.833252 6.3425V6.15917C0.833252 5.97583 0.842419 5.7925 0.860752 5.60917C1.04409 2.78583 2.78575 1.04417 5.60909 0.860832C5.79242 0.842499 5.97575 0.833332 6.15909 0.833332H13.8408C14.0241 0.833332 14.2074 0.842499 14.3908 0.860832C17.2141 1.04417 18.9558 2.78583 19.1391 5.60917C19.1574 5.7925 19.1666 5.97583 19.1666 6.15917Z" fill="#203FCD"/>
</svg>
