<svg width="20" height="20" viewBox="0 0 22 22" fill="none" xmlns="http://www.w3.org/2000/svg">
<path d="M8.25 11.9166C7.645 12.2191 7.14083 12.6683 6.765 13.2275C6.55416 13.5483 6.55416 13.9516 6.765 14.2725C7.14083 14.8316 7.645 15.2808 8.25 15.5833M13.9425 11.9166C14.5475 12.2191 15.0517 12.6683 15.4275 13.2275C15.6383 13.5483 15.6383 13.9516 15.4275 14.2725C15.0517 14.8316 14.5475 15.2808 13.9425 15.5833" stroke="currentColor" stroke-width="1.5" stroke-linecap="round" stroke-linejoin="round"/>
<path d="M2.04418 7.34254L19.6625 7.33337M8.25001 20.1667H13.75C18.3333 20.1667 20.1667 18.3334 20.1667 13.75V8.25004C20.1667 3.66671 18.3333 1.83337 13.75 1.83337H8.25001C3.66668 1.83337 1.83334 3.66671 1.83334 8.25004V13.75C1.83334 18.3334 3.66668 20.1667 8.25001 20.1667Z" stroke="currentColor" stroke-width="1.5" stroke-linecap="round" stroke-linejoin="round"/>
</svg>
