<svg width="32" height="32" viewBox="0 0 32 32" fill="none" xmlns="http://www.w3.org/2000/svg">
<path d="M13.4791 14.8667H9.94578C9.10578 14.8667 8.42578 15.5467 8.42578 16.3867V23.2133H13.4791V14.8667Z" stroke="#B5BFEF" stroke-width="1.5" stroke-miterlimit="10" stroke-linecap="round" stroke-linejoin="round"/>
<path d="M17.0154 8.8H14.9888C14.1488 8.8 13.4688 9.48 13.4688 10.32V23.2H18.5221V10.32C18.5221 9.48 17.8554 8.8 17.0154 8.8V8.8ZM22.0648 17.1333H18.5314V23.2H23.5848V18.6533C23.5714 17.8133 22.8914 17.1333 22.0648 17.1333V17.1333Z" stroke="#B5BFEF" stroke-width="1.5" stroke-miterlimit="10" stroke-linecap="round" stroke-linejoin="round"/>
<path d="M11.9993 29.3333H19.9993C26.666 29.3333 29.3327 26.6667 29.3327 20V12C29.3327 5.33333 26.666 2.66667 19.9993 2.66667H11.9993C5.33268 2.66667 2.66602 5.33333 2.66602 12V20C2.66602 26.6667 5.33268 29.3333 11.9993 29.3333Z" stroke="#B5BFEF" stroke-width="1.5" stroke-linecap="round" stroke-linejoin="round"/>
</svg>
