<svg width="22" height="22" viewBox="0 0 22 22" fill="none" xmlns="http://www.w3.org/2000/svg">
<path d="M18.7915 9.34051H16.1423C13.9698 9.34051 12.2007 7.57134 12.2007 5.39884V2.74967C12.2007 2.24551 11.7882 1.83301 11.284 1.83301H7.39734C4.574 1.83301 2.2915 3.66634 2.2915 6.93884V15.0605C2.2915 18.333 4.574 20.1663 7.39734 20.1663H14.6023C17.4257 20.1663 19.7082 18.333 19.7082 15.0605V10.2572C19.7082 9.75301 19.2957 9.34051 18.7915 9.34051Z" fill="#203FCD"/>
<path d="M14.4832 2.02627C14.1074 1.65044 13.4565 1.90711 13.4565 2.42961V5.62877C13.4565 6.96711 14.5932 8.07627 15.9774 8.07627C16.8482 8.08544 18.0582 8.08544 19.094 8.08544C19.6165 8.08544 19.8915 7.47127 19.5249 7.10461C18.2049 5.77544 15.8399 3.38294 14.4832 2.02627Z" fill="#203FCD"/>
</svg>
