<svg width="24" height="24" viewBox="0 0 24 24" fill="none" xmlns="http://www.w3.org/2000/svg">
<path d="M12 0.333252C15.1699 0.333252 15.5654 0.344919 16.809 0.403252C18.0515 0.461585 18.8974 0.656419 19.6417 0.945752C20.4117 1.24209 21.0604 1.64342 21.709 2.29092C22.3023 2.87413 22.7613 3.57961 23.0542 4.35825C23.3424 5.10142 23.5384 5.94842 23.5967 7.19092C23.6515 8.43459 23.6667 8.83009 23.6667 11.9999C23.6667 15.1698 23.655 15.5653 23.5967 16.8089C23.5384 18.0514 23.3424 18.8973 23.0542 19.6416C22.7622 20.4207 22.303 21.1263 21.709 21.7089C21.1257 22.302 20.4202 22.761 19.6417 23.0541C18.8985 23.3423 18.0515 23.5383 16.809 23.5966C15.5654 23.6514 15.1699 23.6666 12 23.6666C8.83021 23.6666 8.43471 23.6549 7.19104 23.5966C5.94854 23.5383 5.10271 23.3423 4.35837 23.0541C3.57942 22.7618 2.87382 22.3027 2.29104 21.7089C1.69768 21.1258 1.23863 20.4203 0.945874 19.6416C0.656541 18.8984 0.461707 18.0514 0.403374 16.8089C0.348541 15.5653 0.333374 15.1698 0.333374 11.9999C0.333374 8.83009 0.345041 8.43459 0.403374 7.19092C0.461707 5.94725 0.656541 5.10259 0.945874 4.35825C1.23782 3.57913 1.69698 2.87346 2.29104 2.29092C2.87399 1.69736 3.57954 1.23827 4.35837 0.945752C5.10271 0.656419 5.94737 0.461585 7.19104 0.403252C8.43471 0.348419 8.83021 0.333252 12 0.333252ZM12 6.16659C10.4529 6.16659 8.96921 6.78117 7.87525 7.87513C6.78129 8.96909 6.16671 10.4528 6.16671 11.9999C6.16671 13.547 6.78129 15.0307 7.87525 16.1247C8.96921 17.2187 10.4529 17.8333 12 17.8333C13.5471 17.8333 15.0309 17.2187 16.1248 16.1247C17.2188 15.0307 17.8334 13.547 17.8334 11.9999C17.8334 10.4528 17.2188 8.96909 16.1248 7.87513C15.0309 6.78117 13.5471 6.16659 12 6.16659ZM19.5834 5.87492C19.5834 5.48814 19.4297 5.11721 19.1562 4.84372C18.8827 4.57023 18.5118 4.41659 18.125 4.41659C17.7383 4.41659 17.3673 4.57023 17.0938 4.84372C16.8204 5.11721 16.6667 5.48814 16.6667 5.87492C16.6667 6.26169 16.8204 6.63263 17.0938 6.90612C17.3673 7.17961 17.7383 7.33325 18.125 7.33325C18.5118 7.33325 18.8827 7.17961 19.1562 6.90612C19.4297 6.63263 19.5834 6.26169 19.5834 5.87492ZM12 8.49992C12.9283 8.49992 13.8185 8.86867 14.4749 9.52505C15.1313 10.1814 15.5 11.0717 15.5 11.9999C15.5 12.9282 15.1313 13.8184 14.4749 14.4748C13.8185 15.1312 12.9283 15.4999 12 15.4999C11.0718 15.4999 10.1815 15.1312 9.52517 14.4748C8.86879 13.8184 8.50004 12.9282 8.50004 11.9999C8.50004 11.0717 8.86879 10.1814 9.52517 9.52505C10.1815 8.86867 11.0718 8.49992 12 8.49992Z" fill="white"/>
</svg>
