<svg width="23" height="22" viewBox="0 0 23 22" fill="none" xmlns="http://www.w3.org/2000/svg">
<path d="M5.09672 2.83328C5.09641 3.45212 4.85028 4.04549 4.41248 4.48285C3.97467 4.92022 3.38106 5.16576 2.76222 5.16545C2.14338 5.16514 1.55001 4.91901 1.11265 4.4812C0.67528 4.0434 0.429745 3.44978 0.430054 2.83095C0.430363 2.21211 0.676493 1.61874 1.1143 1.18137C1.5521 0.744006 2.14572 0.49847 2.76455 0.49878C3.38339 0.499089 3.97676 0.745218 4.41413 1.18302C4.85149 1.62083 5.09703 2.21444 5.09672 2.83328ZM5.16672 6.89328H0.500054V21.4999H5.16672V6.89328ZM12.5401 6.89328H7.89672V21.4999H12.4934V13.8349C12.4934 9.56495 18.0584 9.16828 18.0584 13.8349V21.4999H22.6667V12.2483C22.6667 5.04995 14.4301 5.31828 12.4934 8.85328L12.5401 6.89328Z" fill="white"/>
</svg>
