<svg width="20" height="20" viewBox="0 0 20 20" fill="none" xmlns="http://www.w3.org/2000/svg">
<path d="M11.7913 4.91667H8.20801M17.1663 6.16667V14.5C17.1663 17.8333 16.2705 18.6667 12.6872 18.6667H7.31217C3.72884 18.6667 2.83301 17.8333 2.83301 14.5V6.16667C2.83301 2.83333 3.72884 2 7.31217 2H12.6872C16.2705 2 17.1663 2.83333 17.1663 6.16667Z" stroke="white" stroke-width="1.5" stroke-linecap="round" stroke-linejoin="round"/>
<path d="M9.99967 11.5833C10.4749 11.5833 10.9306 11.4472 11.2666 11.205C11.6026 10.9628 11.7913 10.6342 11.7913 10.2917C11.7913 9.94909 11.6026 9.62055 11.2666 9.37832C10.9306 9.13609 10.4749 9 9.99967 9C9.5245 9 9.06878 9.13609 8.73278 9.37832C8.39677 9.62055 8.20801 9.94909 8.20801 10.2917C8.20801 10.6342 8.39677 10.9628 8.73278 11.205C9.06878 11.4472 9.5245 11.5833 9.99967 11.5833V11.5833Z" stroke="white" stroke-width="1.5" stroke-linecap="round" stroke-linejoin="round"/>
</svg>
