<svg width="38" height="38" viewBox="0 0 38 38" fill="none" xmlns="http://www.w3.org/2000/svg">
<path d="M19 23.75C20.2598 23.75 21.468 23.2496 22.3588 22.3588C23.2496 21.468 23.75 20.2598 23.75 19C23.75 17.7402 23.2496 16.532 22.3588 15.6412C21.468 14.7504 20.2598 14.25 19 14.25C17.7402 14.25 16.532 14.7504 15.6412 15.6412C14.7504 16.532 14.25 17.7402 14.25 19C14.25 20.2598 14.7504 21.468 15.6412 22.3588C16.532 23.2496 17.7402 23.75 19 23.75Z" fill="#072AC8"/>
<path d="M26.9167 5.54175H11.0834C6.33341 5.54175 3.16675 7.91675 3.16675 13.4584V24.5417C3.16675 30.0834 6.33341 32.4584 11.0834 32.4584H26.9167C31.6667 32.4584 34.8334 30.0834 34.8334 24.5417V13.4584C34.8334 7.91675 31.6667 5.54175 26.9167 5.54175ZM11.0834 30.0834C11.0834 25.6184 9.64258 23.9717 5.54175 23.7817V14.2184C9.64258 14.0284 11.0834 12.3817 11.0834 7.91675H26.9167C26.9167 12.3817 28.3576 14.0284 32.4584 14.2184V23.7817C28.3576 23.9717 26.9167 25.6184 26.9167 30.0834H11.0834Z" fill="#072AC8"/>
</svg>
