<svg width="32" height="32" viewBox="0 0 32 32" fill="none" xmlns="http://www.w3.org/2000/svg">
<path d="M13.3337 22.6H8.28033C3.78699 22.6 2.66699 21.48 2.66699 16.9867V8.98667C2.66699 4.49333 3.78699 3.37333 8.28033 3.37333H22.3203C26.8137 3.37333 27.9337 4.49333 27.9337 8.98667M13.3337 28.6267V22.6M2.66699 17.2667H13.3337M8.98699 28.6267H13.3337" stroke="#B5BFEF" stroke-width="1.5" stroke-linecap="round" stroke-linejoin="round"/>
<path d="M29.3337 17.0667V24.68C29.3337 27.84 28.547 28.6267 25.387 28.6267H20.6537C17.4937 28.6267 16.707 27.84 16.707 24.68V17.0667C16.707 13.9067 17.4937 13.12 20.6537 13.12H25.387C28.547 13.12 29.3337 13.9067 29.3337 17.0667Z" stroke="#B5BFEF" stroke-width="1.5" stroke-linecap="round" stroke-linejoin="round"/>
<path d="M22.9922 24.3333H23.0055" stroke="#B5BFEF" stroke-width="2" stroke-linecap="round" stroke-linejoin="round"/>
</svg>
