<svg width="38" height="38" viewBox="0 0 38 38" fill="none" xmlns="http://www.w3.org/2000/svg">
<path d="M33.2342 15.3742C32.6958 15.1526 31.9833 15.0417 31.0967 15.0417H22.7367C19.9817 15.0417 19 16.0234 19 18.8101V31.0651C19 31.9834 19.1108 32.6959 19.3483 33.2501C19.8392 34.3901 20.8842 34.8334 22.7367 34.8334H31.0967C33.8517 34.8334 34.8333 33.8359 34.8333 31.0651V18.8101C34.8333 16.9259 34.39 15.8651 33.2342 15.3742ZM28.5 31.2709H25.3333C25.3017 31.2709 25.2542 31.2709 25.2225 31.2551C24.9934 31.2453 24.7749 31.1557 24.605 31.0017C24.4607 30.8965 24.3436 30.7582 24.2637 30.5984C24.1839 30.4386 24.1434 30.262 24.1458 30.0834C24.1458 29.4342 24.6842 28.8959 25.3333 28.8959H28.5C29.1492 28.8959 29.6875 29.4342 29.6875 30.0834C29.6875 30.7326 29.1492 31.2709 28.5 31.2709Z" fill="#072AC8"/>
<path d="M33.2343 9.80091V11.0834C33.2343 11.9542 32.5218 12.6667 31.651 12.6667H22.7368C18.6834 12.6667 16.6251 14.7409 16.6251 18.8101V33.2501C16.6251 34.1209 15.9126 34.8334 15.0418 34.8334H11.9543C11.321 34.8334 10.8143 34.3267 10.8143 33.7092C10.8143 33.0759 11.321 32.5851 11.9543 32.5851H15.0418V26.5209H9.50012C7.79702 26.4368 6.19142 25.7012 5.01552 24.4664C3.83961 23.2315 3.18339 21.5919 3.18262 19.8867V9.80091C3.18262 6.14341 6.15928 3.16675 9.83262 3.16675H26.6001C30.2576 3.16675 33.2343 6.14341 33.2343 9.80091Z" fill="#072AC8"/>
</svg>
