<svg width="22" height="22" viewBox="0 0 22 22" fill="none" xmlns="http://www.w3.org/2000/svg">
<path d="M11 21.5C8.08333 21.5 5.60417 20.4792 3.5625 18.4375C1.52083 16.3958 0.5 13.9167 0.5 11C0.5 8.08333 1.52083 5.60417 3.5625 3.5625C5.60417 1.52083 8.08333 0.5 11 0.5C11.2722 0.5 11.5398 0.509722 11.8027 0.529167C12.0648 0.548611 12.3222 0.577778 12.575 0.616667C11.7778 1.18056 11.1412 1.91439 10.6652 2.81817C10.1884 3.72272 9.95 4.7 9.95 5.75C9.95 7.5 10.5625 8.9875 11.7875 10.2125C13.0125 11.4375 14.5 12.05 16.25 12.05C17.3194 12.05 18.3014 11.8116 19.1958 11.3348C20.0903 10.8588 20.8194 10.2222 21.3833 9.425C21.4222 9.67778 21.4514 9.93522 21.4708 10.1973C21.4903 10.4602 21.5 10.7278 21.5 11C21.5 13.9167 20.4792 16.3958 18.4375 18.4375C16.3958 20.4792 13.9167 21.5 11 21.5Z" fill="white"/>
</svg>
