<svg width="20" height="7" viewBox="0 0 20 7" fill="none" xmlns="http://www.w3.org/2000/svg">
<path d="M3 1.59737C1.9 1.59737 1 2.49737 1 3.59737C1 4.69737 1.9 5.59737 3 5.59737C4.1 5.59737 5 4.69737 5 3.59737C5 2.49737 4.1 1.59737 3 1.59737ZM17 1.59737C15.9 1.59737 15 2.49737 15 3.59737C15 4.69737 15.9 5.59737 17 5.59737C18.1 5.59737 19 4.69737 19 3.59737C19 2.49737 18.1 1.59737 17 1.59737ZM10 1.59737C8.9 1.59737 8 2.49737 8 3.59737C8 4.69737 8.9 5.59737 10 5.59737C11.1 5.59737 12 4.69737 12 3.59737C12 2.49737 11.1 1.59737 10 1.59737Z" stroke="#F3F4FC" stroke-width="1.5"/>
</svg>
