<svg width="32" height="32" viewBox="0 0 32 32" fill="none" xmlns="http://www.w3.org/2000/svg">
<path d="M29.3332 16.0003V12.0003C29.3332 5.33366 26.6665 2.66699 19.9998 2.66699H11.9998C5.33317 2.66699 2.6665 5.33366 2.6665 12.0003V20.0003C2.6665 26.667 5.33317 29.3337 11.9998 29.3337H15.9998" stroke="#B5BFEF" stroke-width="1.5" stroke-linecap="round" stroke-linejoin="round"/>
<path d="M27.9466 23.787L25.7732 24.5203C25.1732 24.7203 24.6932 25.187 24.4932 25.8003L23.7599 27.9736C23.1332 29.8536 20.4932 29.8136 19.9066 27.9336L17.4399 20.0003C16.9599 18.427 18.4132 16.9603 19.9732 17.4536L27.9199 19.9203C29.7866 20.507 29.8132 23.1603 27.9466 23.787Z" stroke="#B5BFEF" stroke-width="1.5" stroke-linecap="round" stroke-linejoin="round"/>
</svg>
