<svg width="20" height="20" viewBox="0 0 22 22" fill="none" xmlns="http://www.w3.org/2000/svg">
<path d="M17.1138 1.83334H15.3722C13.3738 1.83334 12.3197 2.8875 12.3197 4.88584V6.6275C12.3197 8.62584 13.3738 9.68 15.3722 9.68H17.1138C19.1122 9.68 20.1663 8.62584 20.1663 6.6275V4.88584C20.1663 2.8875 19.1122 1.83334 17.1138 1.83334ZM6.63634 12.3108H4.89467C2.88717 12.3108 1.83301 13.365 1.83301 15.3633V17.105C1.83301 19.1125 2.88717 20.1667 4.88551 20.1667H6.62717C8.62551 20.1667 9.67968 19.1125 9.67968 17.1142V15.3725C9.68884 13.365 8.63467 12.3108 6.63634 12.3108ZM5.76551 9.69834C6.28193 9.69834 6.7933 9.59662 7.27041 9.39899C7.74752 9.20136 8.18104 8.9117 8.54621 8.54653C8.91137 8.18137 9.20104 7.74785 9.39866 7.27074C9.59629 6.79363 9.69801 6.28226 9.69801 5.76584C9.69801 5.24941 9.59629 4.73805 9.39866 4.26093C9.20104 3.78382 8.91137 3.3503 8.54621 2.98514C8.18104 2.61997 7.74752 2.33031 7.27041 2.13268C6.7933 1.93505 6.28193 1.83334 5.76551 1.83334C4.72254 1.83334 3.7223 2.24765 2.98481 2.98514C2.24732 3.72263 1.83301 4.72287 1.83301 5.76584C1.83301 6.8088 2.24732 7.80905 2.98481 8.54653C3.7223 9.28402 4.72254 9.69834 5.76551 9.69834ZM16.2338 20.1685C17.2768 20.1685 18.2771 19.7542 19.0145 19.0167C19.752 18.2792 20.1663 17.279 20.1663 16.236C20.1663 15.193 19.752 14.1928 19.0145 13.4553C18.2771 12.7178 17.2768 12.3035 16.2338 12.3035C15.1909 12.3035 14.1906 12.7178 13.4531 13.4553C12.7157 14.1928 12.3013 15.193 12.3013 16.236C12.3013 17.279 12.7157 18.2792 13.4531 19.0167C14.1906 19.7542 15.1909 20.1685 16.2338 20.1685Z" fill="#203FCD"/>
</svg>
