<svg width="20" height="20" viewBox="0 0 20 20" fill="none" xmlns="http://www.w3.org/2000/svg">
<path d="M14.5833 8.16671H16.4167C18.25 8.16671 19.1667 7.25004 19.1667 5.41671V3.58337C19.1667 1.75004 18.25 0.833374 16.4167 0.833374H14.5833C12.75 0.833374 11.8333 1.75004 11.8333 3.58337V5.41671C11.8333 7.25004 12.75 8.16671 14.5833 8.16671ZM3.58334 19.1667H5.41668C7.25001 19.1667 8.16668 18.25 8.16668 16.4167V14.5834C8.16668 12.75 7.25001 11.8334 5.41668 11.8334H3.58334C1.75001 11.8334 0.833344 12.75 0.833344 14.5834V16.4167C0.833344 18.25 1.75001 19.1667 3.58334 19.1667ZM4.50001 8.16671C5.47247 8.16671 6.4051 7.7804 7.09273 7.09277C7.78037 6.40513 8.16668 5.4725 8.16668 4.50004C8.16668 3.52758 7.78037 2.59495 7.09273 1.90732C6.4051 1.21968 5.47247 0.833374 4.50001 0.833374C3.52755 0.833374 2.59492 1.21968 1.90729 1.90732C1.21965 2.59495 0.833344 3.52758 0.833344 4.50004C0.833344 5.4725 1.21965 6.40513 1.90729 7.09277C2.59492 7.7804 3.52755 8.16671 4.50001 8.16671V8.16671ZM15.5 19.1667C16.4725 19.1667 17.4051 18.7804 18.0927 18.0928C18.7804 17.4051 19.1667 16.4725 19.1667 15.5C19.1667 14.5276 18.7804 13.5949 18.0927 12.9073C17.4051 12.2197 16.4725 11.8334 15.5 11.8334C14.5275 11.8334 13.5949 12.2197 12.9073 12.9073C12.2197 13.5949 11.8333 14.5276 11.8333 15.5C11.8333 16.4725 12.2197 17.4051 12.9073 18.0928C13.5949 18.7804 14.5275 19.1667 15.5 19.1667Z" stroke="currentColor" stroke-width="1.5" stroke-miterlimit="10" stroke-linecap="round" stroke-linejoin="round"/>
</svg>
