<svg width="20" height="20" viewBox="0 0 30 30" fill="none" xmlns="http://www.w3.org/2000/svg">
<path d="M15.1954 13.6228C15.0736 13.6107 14.9273 13.6107 14.7932 13.6228C13.3944 13.5753 12.0689 12.9852 11.0975 11.9775C10.1262 10.9697 9.58521 9.62345 9.58918 8.22377C9.58918 5.23784 12.0023 2.81252 15.0004 2.81252C15.7102 2.79972 16.4156 2.92685 17.0763 3.18666C17.737 3.44646 18.34 3.83385 18.851 4.32672C19.362 4.81958 19.7709 5.40825 20.0543 6.05914C20.3378 6.71002 20.4903 7.41037 20.5031 8.12018C20.5159 8.83 20.3888 9.53538 20.129 10.1961C19.8692 10.8567 19.4818 11.4598 18.9889 11.9708C18.496 12.4817 17.9074 12.8906 17.2565 13.1741C16.6056 13.4575 15.9052 13.61 15.1954 13.6228V13.6228ZM9.10168 18.12C6.1523 20.0944 6.1523 23.3119 9.10168 25.2741C12.4532 27.5166 17.9498 27.5166 21.3014 25.2741C24.2507 23.2997 24.2507 20.0822 21.3014 18.12C17.962 15.8897 12.4654 15.8897 9.10168 18.12V18.12Z" stroke="currentColor" stroke-width="1.5" stroke-linecap="round" stroke-linejoin="round"/>
</svg>
