<svg width="20" height="18" viewBox="0 0 20 18" fill="none" xmlns="http://www.w3.org/2000/svg">
<path d="M17.4257 6.45258C15.7665 6.45258 15.0882 5.27925 15.9132 3.84008C16.3898 3.00591 16.1057 1.94258 15.2715 1.46591L13.6857 0.558413C12.9615 0.12758 12.0265 0.384247 11.5957 1.10841L11.4948 1.28258C10.6698 2.72175 9.31315 2.72175 8.47898 1.28258L8.37815 1.10841C8.27934 0.935146 8.14705 0.783261 7.98898 0.661598C7.83092 0.539934 7.65024 0.450922 7.45745 0.39974C7.26467 0.348557 7.06363 0.336228 6.86603 0.363469C6.66844 0.390709 6.47823 0.456976 6.30648 0.558413L4.72065 1.46591C3.88648 1.94258 3.60232 3.01508 4.07898 3.84925C4.91315 5.27925 4.23482 6.45258 2.57565 6.45258C1.62232 6.45258 0.833984 7.23175 0.833984 8.19425V9.80758C0.833984 10.7609 1.61315 11.5492 2.57565 11.5492C4.23482 11.5492 4.91315 12.7226 4.07898 14.1617C3.60232 14.9959 3.88648 16.0592 4.72065 16.5359L6.30648 17.4434C7.03065 17.8742 7.96565 17.6176 8.39648 16.8934L8.49732 16.7192C9.32232 15.2801 10.679 15.2801 11.5132 16.7192L11.614 16.8934C12.0448 17.6176 12.9798 17.8742 13.704 17.4434L15.2898 16.5359C16.124 16.0592 16.4082 14.9867 15.9315 14.1617C15.0973 12.7226 15.7757 11.5492 17.4348 11.5492C18.3882 11.5492 19.1765 10.7701 19.1765 9.80758V8.19425C19.1717 7.73223 18.9854 7.29064 18.6578 6.96479C18.3302 6.63893 17.8877 6.45496 17.4257 6.45258ZM10.0007 11.9801C8.35982 11.9801 7.02148 10.6417 7.02148 9.00091C7.02148 7.36008 8.35982 6.02175 10.0007 6.02175C11.6415 6.02175 12.9798 7.36008 12.9798 9.00091C12.9798 10.6417 11.6415 11.9801 10.0007 11.9801Z" fill="#203FCD"/>
</svg>
