<svg width="26" height="26" viewBox="0 0 26 26" fill="none" xmlns="http://www.w3.org/2000/svg">
<path d="M11.8337 3.66675V0.166748H14.167V3.66675H11.8337ZM11.8337 25.8334V22.3334H14.167V25.8334H11.8337ZM22.3337 14.1667V11.8334H25.8337V14.1667H22.3337ZM0.166992 14.1667V11.8334H3.66699V14.1667H0.166992ZM20.817 6.81675L19.1837 5.18341L21.2253 3.08341L22.917 4.77508L20.817 6.81675ZM4.77533 22.9167L3.08366 21.2251L5.18366 19.1834L6.81699 20.8167L4.77533 22.9167ZM21.2253 22.9167L19.1837 20.8167L20.817 19.1834L22.917 21.2251L21.2253 22.9167ZM5.18366 6.81675L3.08366 4.77508L4.77533 3.08341L6.81699 5.18341L5.18366 6.81675ZM13.0003 20.0001C11.0559 20.0001 9.4031 19.3195 8.04199 17.9584C6.68088 16.5973 6.00033 14.9445 6.00033 13.0001C6.00033 11.0556 6.68088 9.40286 8.04199 8.04175C9.4031 6.68064 11.0559 6.00008 13.0003 6.00008C14.9448 6.00008 16.5975 6.68064 17.9587 8.04175C19.3198 9.40286 20.0003 11.0556 20.0003 13.0001C20.0003 14.9445 19.3198 16.5973 17.9587 17.9584C16.5975 19.3195 14.9448 20.0001 13.0003 20.0001Z" fill="white"/>
</svg>
