<svg width="26" height="21" viewBox="0 0 26 21" fill="none" xmlns="http://www.w3.org/2000/svg">
<path d="M25.2033 3.00008C24.305 3.40841 23.3366 3.67675 22.3333 3.80508C23.36 3.18675 24.1533 2.20675 24.5266 1.02841C23.5583 1.61175 22.485 2.02008 21.3533 2.25341C20.4316 1.25008 19.1366 0.666748 17.6666 0.666748C14.925 0.666748 12.685 2.90675 12.685 5.67175C12.685 6.06842 12.7316 6.45342 12.8133 6.81508C8.65996 6.60508 4.96163 4.61008 2.49996 1.58841C2.0683 2.32341 1.8233 3.18675 1.8233 4.09675C1.8233 5.83508 2.6983 7.37508 4.05163 8.25008C3.2233 8.25008 2.4533 8.01675 1.77663 7.66675V7.70175C1.77663 10.1284 3.5033 12.1584 5.78996 12.6134C5.05581 12.8143 4.28508 12.8423 3.5383 12.6951C3.85517 13.6896 4.47576 14.5599 5.31282 15.1835C6.14988 15.8071 7.16132 16.1527 8.20496 16.1718C6.43587 17.5723 4.24296 18.3293 1.98663 18.3184C1.58996 18.3184 1.1933 18.2951 0.796631 18.2484C3.0133 19.6717 5.64996 20.5001 8.4733 20.5001C17.6666 20.5001 22.7183 12.8701 22.7183 6.25508C22.7183 6.03341 22.7183 5.82341 22.7066 5.60175C23.6866 4.90175 24.5266 4.01508 25.2033 3.00008Z" fill="currentColor"/>
</svg>
