<svg width="38" height="38" viewBox="0 0 38 38" fill="none" xmlns="http://www.w3.org/2000/svg">
<path d="M18.9999 3.16675C14.6299 3.16675 11.0833 6.71341 11.0833 11.0834C11.0833 15.4534 14.6299 19.0001 18.9999 19.0001C23.3699 19.0001 26.9166 15.4534 26.9166 11.0834C26.9166 6.71341 23.3699 3.16675 18.9999 3.16675ZM22.4358 10.3076L18.1608 14.5826C18.0024 14.7409 17.6699 14.8992 17.4483 14.9467L15.8174 15.1684C15.2158 15.2476 14.8041 14.8359 14.8991 14.2501L15.1366 12.6192C15.1683 12.3976 15.3266 12.0651 15.5008 11.9067L19.7758 7.63175C20.5041 6.90341 21.3749 6.55508 22.4516 7.63175C23.5124 8.72425 23.1641 9.57925 22.4358 10.3076ZM18.9999 22.1667C11.0674 22.1667 4.60742 27.4867 4.60742 34.0417C4.60742 34.4851 4.95576 34.8334 5.39909 34.8334H32.6008C33.0441 34.8334 33.3924 34.4851 33.3924 34.0417C33.3924 27.4867 26.9324 22.1667 18.9999 22.1667Z" fill="#072AC8"/>
</svg>
